<svg width="24" height="24" viewBox="0 0 24 24" fill="none" xmlns="http://www.w3.org/2000/svg">
<path fill-rule="evenodd" clip-rule="evenodd" d="M2.17808 9.43043C2.3649 9.16085 2.67203 9.00002 3.00001 9.00002H21C21.328 9.00002 21.6351 9.16085 21.8219 9.43043C22.0087 9.7 22.0515 10.044 21.9363 10.3511L18.9363 18.3511C18.79 18.7414 18.4168 19 18 19H6C5.58316 19 5.21004 18.7414 5.06367 18.3511L2.06368 10.3511C1.94852 10.044 1.99126 9.7 2.17808 9.43043ZM4.443 11L6.693 17H17.307L19.557 11H4.443Z" fill="black"/>
<path fill-rule="evenodd" clip-rule="evenodd" d="M10.6247 4.21917C11.056 4.56418 11.1259 5.19347 10.7809 5.62473L6.78087 10.6247C6.43586 11.056 5.80657 11.1259 5.37531 10.7809C4.94405 10.4359 4.87413 9.80659 5.21914 9.37533L9.21913 4.37534C9.56414 3.94408 10.1934 3.87416 10.6247 4.21917Z" fill="black"/>
<path fill-rule="evenodd" clip-rule="evenodd" d="M13.3753 4.21917C12.944 4.56418 12.8741 5.19347 13.2191 5.62473L17.2191 10.6247C17.5641 11.056 18.1934 11.1259 18.6247 10.7809C19.056 10.4359 19.1259 9.80659 18.7809 9.37533L14.7809 4.37534C14.4359 3.94408 13.8066 3.87416 13.3753 4.21917Z" fill="black"/>
<path fill-rule="evenodd" clip-rule="evenodd" d="M8 12C8.55229 12 9 12.4477 9 13V15C9 15.5523 8.55229 16 8 16C7.44772 16 7 15.5523 7 15V13C7 12.4477 7.44772 12 8 12Z" fill="black"/>
<path fill-rule="evenodd" clip-rule="evenodd" d="M16 12C16.5523 12 17 12.4477 17 13V15C17 15.5523 16.5523 16 16 16C15.4477 16 15 15.5523 15 15V13C15 12.4477 15.4477 12 16 12Z" fill="black"/>
<path fill-rule="evenodd" clip-rule="evenodd" d="M12 12C12.5523 12 13 12.4477 13 13V15C13 15.5523 12.5523 16 12 16C11.4477 16 11 15.5523 11 15V13C11 12.4477 11.4477 12 12 12Z" fill="black"/>
</svg>
