<svg width="18" height="19" viewBox="0 0 18 19" fill="none" xmlns="http://www.w3.org/2000/svg">
<path d="M11 2C11 2.08781 10.9943 2.17429 10.9834 2.25911C14.1435 3.16006 15 6.19061 15 7.83333V14H17C17.5523 14 18 14.4477 18 15C18 15.5523 17.5523 16 17 16H1C0.447715 16 0 15.5523 0 15C0 14.4477 0.447715 14 1 14H3V7.83333C3 6.19061 3.85648 3.16006 7.01663 2.25911C7.00566 2.17429 7 2.08781 7 2C7 0.895431 7.89543 0 9 0C10.1046 0 11 0.895431 11 2Z" fill="#BABABA"/>
<path d="M11 17C11 18.1046 10.1046 19 9 19C7.89543 19 7 18.1046 7 17H11Z" fill="#BABABA"/>
</svg>
